<svg width="77" height="77" viewBox="0 0 77 77" fill="none" xmlns="http://www.w3.org/2000/svg">
<path fill-rule="evenodd" clip-rule="evenodd" d="M38.5 77C59.763 77 77 59.763 77 38.5C77 17.237 59.763 0 38.5 0C17.237 0 0 17.237 0 38.5C0 59.763 17.237 77 38.5 77ZM16.4167 38.5022V29.6667L38.5 16.4167L60.5833 29.6667V38.5022H58.375V51.75H60.5833V58.375H58.375V58.3772L51.75 58.375H16.4167V51.75H18.625V38.5022H16.4167ZM25.25 38.5022V51.75H29.6667V38.5022H25.25ZM36.2917 38.5022V51.75H40.7083V38.5022H36.2917ZM47.3333 51.75H51.75V38.5022H47.3333V51.75ZM42.58 31.3572C42.8021 30.8213 42.9165 30.2468 42.9167 29.6667C42.917 28.495 42.4518 27.3712 41.6235 26.5425C40.7952 25.7138 39.6717 25.2481 38.5 25.2478C37.3283 25.2475 36.2045 25.7127 35.3758 26.5409C34.5471 27.3692 34.0814 28.4928 34.0811 29.6645C34.081 30.2446 34.1951 30.8191 34.417 31.3551C34.6389 31.8912 34.9642 32.3783 35.3743 32.7886C35.7844 33.1989 36.2713 33.5245 36.8073 33.7466C37.3432 33.9688 37.9176 34.0832 38.4978 34.0833C39.0779 34.0835 39.6524 33.9694 40.1885 33.7475C40.7245 33.5256 41.2116 33.2003 41.622 32.7902C42.0323 32.3801 42.3578 31.8931 42.58 31.3572Z" fill="#21BF73"/>
</svg>
