<svg id="Layer_1" data-name="Layer 1" xmlns="http://www.w3.org/2000/svg" viewBox="0 0 674.12 339.12"><defs><style>.cls-1{fill:none;stroke:#21bf73;stroke-miterlimit:10;stroke-width:50px;}.cls-2{fill:#21bf73;}</style></defs><title>logo</title><path class="cls-1" d="M215.44,395.44H358.78a4.93,4.93,0,0,1,4.93,4.93V678.43a4.94,4.94,0,0,1-4.93,4.94H215.44" transform="translate(-215.44 -370.44)"/><line class="cls-1" y1="168.97" x2="148.28" y2="168.97"/><path class="cls-1" d="M362.6,397.25,571.71,681.34c2.84,3.82,5.8,4.75,5.8,0v-281a4.94,4.94,0,0,0-4.94-4.93H436.13" transform="translate(-215.44 -370.44)"/><path class="cls-1" d="M724.06,395.44l-143,140.44a4.93,4.93,0,0,0,0,7l139.46,137a4.94,4.94,0,0,0,7,0l135.61-137a4.92,4.92,0,0,0,0-6.94l-137.62-139a4.92,4.92,0,0,0-3.51-1.46H566.57" transform="translate(-215.44 -370.44)"/><path class="cls-2" d="M723.85,515.84c-11,0-20.53-5.54-25-13.55V685.62h50V502.29C744.39,510.3,734.87,515.84,723.85,515.84Z" transform="translate(-215.44 -370.44)"/><circle class="cls-2" cx="508.42" cy="112.25" r="24.85"/></svg>